<svg width="340" height="319" viewBox="0 0 340 319" fill="none" xmlns="http://www.w3.org/2000/svg">
<path d="M42.5 0C19.0586 0 0 19.0735 0 42.5333V212.667C0 236.126 19.0586 255.2 42.5 255.2H138.125L127.5 287.1H79.6875C70.8555 287.1 63.75 294.211 63.75 303.05C63.75 311.889 70.8555 319 79.6875 319H260.312C269.145 319 276.25 311.889 276.25 303.05C276.25 294.211 269.145 287.1 260.312 287.1H212.5L201.875 255.2H297.5C320.941 255.2 340 236.126 340 212.667V42.5333C340 19.0735 320.941 0 297.5 0H42.5ZM63.75 42.5333H276.25C288.004 42.5333 297.5 52.0369 297.5 63.8V170.133C297.5 181.896 288.004 191.4 276.25 191.4H63.75C51.9961 191.4 42.5 181.896 42.5 170.133V63.8C42.5 52.0369 51.9961 42.5333 63.75 42.5333Z" fill="#3D3D3D"/>
</svg>
